<svg width="48" height="48" viewBox="0 0 48 48" fill="none" xmlns="http://www.w3.org/2000/svg">
<rect width="48" height="48" fill="#323238"/>
<path d="M17.5832 36V17.7831H11.3668V36H17.5832ZM14.4758 15.2944C16.6436 15.2944 17.9929 13.8956 17.9929 12.1475C17.9525 10.36 16.6437 9 14.5169 9C12.3905 9 11 10.36 11 12.1475C11 13.8957 12.349 15.2944 14.4352 15.2944H14.4756H14.4758ZM21.024 36H27.2405V25.8268C27.2405 25.2824 27.2809 24.7385 27.445 24.3493C27.8944 23.2615 28.9173 22.1348 30.6345 22.1348C32.884 22.1348 33.7839 23.8054 33.7839 26.2543V35.9999H40V25.5545C40 19.959 36.9331 17.3555 32.8431 17.3555C29.4895 17.3555 28.0171 19.1813 27.1991 20.4248H27.2406V17.7828H21.0242C21.1057 19.4921 21.0242 35.9996 21.0242 35.9996L21.024 36Z" fill="white"/>
</svg>
